<?xml version="1.0" encoding="UTF-8"?>
<svg xmlns="http://www.w3.org/2000/svg" xmlns:xlink="http://www.w3.org/1999/xlink" width="174.064pt" height="89.024pt" viewBox="0 0 174.064 89.024" version="1.1">
<defs>
<clipPath id="clip1">
  <path d="M 141 28 L 174.0625 28 L 174.0625 33 L 141 33 Z M 141 28 "/>
</clipPath>
<clipPath id="clip2">
  <path d="M 56 85 L 118 85 L 118 89.023438 L 56 89.023438 Z M 56 85 "/>
</clipPath>
<clipPath id="clip3">
  <path d="M 2 2 L 87 2 L 87 89.023438 L 2 89.023438 Z M 2 2 "/>
</clipPath>
<clipPath id="clip4">
  <path d="M 87 2 L 172 2 L 172 89.023438 L 87 89.023438 Z M 87 2 "/>
</clipPath>
</defs>
<g id="surface1">
<path style="fill:none;stroke-width:3.9851;stroke-linecap:butt;stroke-linejoin:miter;stroke:rgb(0%,0%,0%);stroke-opacity:1;stroke-miterlimit:10;" d="M 28.346188 56.695063 L 56.693844 56.695063 " transform="matrix(1,0,0,-1,-26.354,87.031)"/>
<g clip-path="url(#clip1)" clip-rule="nonzero">
<path style="fill:none;stroke-width:3.9851;stroke-linecap:butt;stroke-linejoin:miter;stroke:rgb(0%,0%,0%);stroke-opacity:1;stroke-miterlimit:10;" d="M 170.080563 56.695063 L 198.428219 56.695063 " transform="matrix(1,0,0,-1,-26.354,87.031)"/>
</g>
<g clip-path="url(#clip2)" clip-rule="nonzero">
<path style="fill:none;stroke-width:3.9851;stroke-linecap:butt;stroke-linejoin:miter;stroke:rgb(0%,0%,0%);stroke-opacity:1;stroke-miterlimit:10;" d="M 85.0415 -0.00025 L 141.732906 -0.00025 " transform="matrix(1,0,0,-1,-26.354,87.031)"/>
</g>
<path style="fill:none;stroke-width:3.9851;stroke-linecap:butt;stroke-linejoin:miter;stroke:rgb(0%,0%,0%);stroke-opacity:1;stroke-miterlimit:10;" d="M 85.0415 28.347406 L 141.732906 28.347406 " transform="matrix(1,0,0,-1,-26.354,87.031)"/>
<path style="fill:none;stroke-width:3.9851;stroke-linecap:butt;stroke-linejoin:miter;stroke:rgb(0%,0%,0%);stroke-opacity:1;stroke-miterlimit:10;" d="M 85.0415 42.519281 L 141.732906 42.519281 " transform="matrix(1,0,0,-1,-26.354,87.031)"/>
<path style="fill:none;stroke-width:3.9851;stroke-linecap:butt;stroke-linejoin:miter;stroke:rgb(0%,0%,0%);stroke-opacity:1;stroke-miterlimit:10;" d="M 85.0415 85.038813 L 141.732906 85.038813 " transform="matrix(1,0,0,-1,-26.354,87.031)"/>
<g clip-path="url(#clip3)" clip-rule="nonzero">
<path style="fill:none;stroke-width:1.99255;stroke-linecap:butt;stroke-linejoin:miter;stroke:rgb(0%,0%,0%);stroke-opacity:1;stroke-dasharray:2.98883,2.98883;stroke-miterlimit:10;" d="M 56.693844 56.695063 L 85.0415 -0.00025 " transform="matrix(1,0,0,-1,-26.354,87.031)"/>
</g>
<path style="fill:none;stroke-width:1.99255;stroke-linecap:butt;stroke-linejoin:miter;stroke:rgb(0%,0%,0%);stroke-opacity:1;stroke-dasharray:2.98883,2.98883;stroke-miterlimit:10;" d="M 56.693844 56.695063 L 85.0415 85.038813 " transform="matrix(1,0,0,-1,-26.354,87.031)"/>
<path style="fill:none;stroke-width:1.99255;stroke-linecap:butt;stroke-linejoin:miter;stroke:rgb(0%,0%,0%);stroke-opacity:1;stroke-dasharray:2.98883,2.98883;stroke-miterlimit:10;" d="M 56.693844 56.695063 L 85.0415 28.347406 " transform="matrix(1,0,0,-1,-26.354,87.031)"/>
<path style="fill:none;stroke-width:1.99255;stroke-linecap:butt;stroke-linejoin:miter;stroke:rgb(0%,0%,0%);stroke-opacity:1;stroke-dasharray:2.98883,2.98883;stroke-miterlimit:10;" d="M 56.693844 56.695063 L 85.0415 42.519281 " transform="matrix(1,0,0,-1,-26.354,87.031)"/>
<g clip-path="url(#clip4)" clip-rule="nonzero">
<path style="fill:none;stroke-width:1.99255;stroke-linecap:butt;stroke-linejoin:miter;stroke:rgb(0%,0%,0%);stroke-opacity:1;stroke-dasharray:2.98883,2.98883;stroke-miterlimit:10;" d="M 170.080563 56.695063 L 141.732906 -0.00025 " transform="matrix(1,0,0,-1,-26.354,87.031)"/>
</g>
<path style="fill:none;stroke-width:1.99255;stroke-linecap:butt;stroke-linejoin:miter;stroke:rgb(0%,0%,0%);stroke-opacity:1;stroke-dasharray:2.98883,2.98883;stroke-miterlimit:10;" d="M 170.080563 56.695063 L 141.732906 85.038813 " transform="matrix(1,0,0,-1,-26.354,87.031)"/>
<path style="fill:none;stroke-width:1.99255;stroke-linecap:butt;stroke-linejoin:miter;stroke:rgb(0%,0%,0%);stroke-opacity:1;stroke-dasharray:2.98883,2.98883;stroke-miterlimit:10;" d="M 170.080563 56.695063 L 141.732906 28.347406 " transform="matrix(1,0,0,-1,-26.354,87.031)"/>
<path style="fill:none;stroke-width:1.99255;stroke-linecap:butt;stroke-linejoin:miter;stroke:rgb(0%,0%,0%);stroke-opacity:1;stroke-dasharray:2.98883,2.98883;stroke-miterlimit:10;" d="M 170.080563 56.695063 L 141.732906 42.519281 " transform="matrix(1,0,0,-1,-26.354,87.031)"/>
</g>
</svg>
